<mxfile host="app.diagrams.net" modified="2024-05-21T00:50:52.601Z" agent="Mozilla/5.0 (Windows NT 10.0; Win64; x64) AppleWebKit/537.36 (KHTML, like Gecko) Chrome/125.0.0.0 Safari/537.36 Edg/125.0.0.0" etag="nXHfS3kLT6w2Go56zSx9" version="24.4.4" type="github">
  <diagram name="Page-1" id="c8SlwGHaQUOcX9Q1mw6M">
    <mxGraphModel dx="739" dy="457" grid="1" gridSize="10" guides="1" tooltips="1" connect="1" arrows="1" fold="1" page="1" pageScale="1" pageWidth="850" pageHeight="1100" math="0" shadow="0">
      <root>
        <mxCell id="0" />
        <mxCell id="1" parent="0" />
        <mxCell id="bPT7z6EDC0ymhBereFD1-1" value="" style="whiteSpace=wrap;html=1;fillColor=#f5f5f5;fontColor=#333333;strokeColor=#666666;" parent="1" vertex="1">
          <mxGeometry x="490" y="730" width="440" height="500" as="geometry" />
        </mxCell>
        <mxCell id="bPT7z6EDC0ymhBereFD1-2" value="&lt;font style=&quot;font-size: 14px;&quot;&gt;SBC Build Cluster / pl-036&lt;/font&gt;" style="text;html=1;align=center;verticalAlign=middle;whiteSpace=wrap;rounded=0;fontSize=16;fontStyle=1" parent="1" vertex="1">
          <mxGeometry x="580" y="740" width="240" height="30" as="geometry" />
        </mxCell>
        <mxCell id="bPT7z6EDC0ymhBereFD1-3" value="" style="rounded=0;whiteSpace=wrap;html=1;fillColor=#ffe6cc;strokeColor=#d79b00;" parent="1" vertex="1">
          <mxGeometry x="525" y="790" width="155" height="100" as="geometry" />
        </mxCell>
        <mxCell id="bPT7z6EDC0ymhBereFD1-5" value="sbclogin1" style="text;html=1;align=center;verticalAlign=middle;whiteSpace=wrap;rounded=0;" parent="1" vertex="1">
          <mxGeometry x="567" y="794" width="60" height="30" as="geometry" />
        </mxCell>
        <mxCell id="bPT7z6EDC0ymhBereFD1-7" value="" style="whiteSpace=wrap;html=1;aspect=fixed;fillColor=#f5f5f5;fontColor=#333333;strokeColor=#666666;" parent="1" vertex="1">
          <mxGeometry x="590" y="340" width="320" height="320" as="geometry" />
        </mxCell>
        <mxCell id="bPT7z6EDC0ymhBereFD1-8" value="vLab pl-036" style="text;html=1;align=center;verticalAlign=middle;whiteSpace=wrap;rounded=0;" parent="1" vertex="1">
          <mxGeometry x="705" y="350" width="80" height="30" as="geometry" />
        </mxCell>
        <mxCell id="bPT7z6EDC0ymhBereFD1-9" value="" style="rounded=0;whiteSpace=wrap;html=1;" parent="1" vertex="1">
          <mxGeometry x="607" y="385" width="290" height="255" as="geometry" />
        </mxCell>
        <mxCell id="bPT7z6EDC0ymhBereFD1-10" value="sbcweb" style="text;html=1;align=center;verticalAlign=middle;whiteSpace=wrap;rounded=0;" parent="1" vertex="1">
          <mxGeometry x="706" y="389" width="80" height="30" as="geometry" />
        </mxCell>
        <mxCell id="bPT7z6EDC0ymhBereFD1-11" value="VMTCA Container" style="swimlane;whiteSpace=wrap;html=1;fillColor=#dae8fc;strokeColor=#6c8ebf;" parent="1" vertex="1">
          <mxGeometry x="632" y="530" width="240" height="90" as="geometry" />
        </mxCell>
        <mxCell id="bPT7z6EDC0ymhBereFD1-12" value="pip3 install firebase-admin&lt;div&gt;tar -czf&amp;nbsp;site-packages ...&lt;/div&gt;" style="text;html=1;align=center;verticalAlign=middle;whiteSpace=wrap;rounded=0;" parent="bPT7z6EDC0ymhBereFD1-11" vertex="1">
          <mxGeometry x="45" y="35" width="150" height="30" as="geometry" />
        </mxCell>
        <mxCell id="bPT7z6EDC0ymhBereFD1-13" value="Squid Container" style="swimlane;whiteSpace=wrap;html=1;fillColor=#dae8fc;strokeColor=#6c8ebf;" parent="1" vertex="1">
          <mxGeometry x="632" y="424" width="240" height="75" as="geometry" />
        </mxCell>
        <mxCell id="bPT7z6EDC0ymhBereFD1-14" value="HTTP/HTTPS Proxy&lt;div&gt;http://sbcweb.int.nokia-sbell.com/&lt;br&gt;&lt;/div&gt;" style="text;html=1;align=center;verticalAlign=middle;whiteSpace=wrap;rounded=0;" parent="bPT7z6EDC0ymhBereFD1-13" vertex="1">
          <mxGeometry x="33" y="34" width="185" height="30" as="geometry" />
        </mxCell>
        <mxCell id="bPT7z6EDC0ymhBereFD1-15" value="" style="group" parent="1" vertex="1" connectable="0">
          <mxGeometry x="540" y="830" width="114" height="40" as="geometry" />
        </mxCell>
        <mxCell id="bPT7z6EDC0ymhBereFD1-16" value="" style="rounded=1;whiteSpace=wrap;html=1;" parent="bPT7z6EDC0ymhBereFD1-15" vertex="1">
          <mxGeometry width="114" height="40" as="geometry" />
        </mxCell>
        <mxCell id="bPT7z6EDC0ymhBereFD1-17" value="&lt;div&gt;NFS server&lt;/div&gt;&lt;div&gt;/home&lt;/div&gt;" style="text;html=1;align=center;verticalAlign=middle;whiteSpace=wrap;rounded=0;" parent="bPT7z6EDC0ymhBereFD1-15" vertex="1">
          <mxGeometry y="6" width="110.3225806451613" height="26" as="geometry" />
        </mxCell>
        <mxCell id="bPT7z6EDC0ymhBereFD1-21" value="Nokia IT&lt;div&gt;Proxy&lt;/div&gt;" style="ellipse;shape=cloud;whiteSpace=wrap;html=1;" parent="1" vertex="1">
          <mxGeometry x="939.96" y="423.5" width="120" height="80" as="geometry" />
        </mxCell>
        <mxCell id="bPT7z6EDC0ymhBereFD1-22" value="Google" style="ellipse;shape=cloud;whiteSpace=wrap;html=1;" parent="1" vertex="1">
          <mxGeometry x="1120" y="424" width="120" height="80" as="geometry" />
        </mxCell>
        <mxCell id="bPT7z6EDC0ymhBereFD1-25" value="" style="endArrow=classic;html=1;rounded=0;entryX=0.084;entryY=0.581;entryDx=0;entryDy=0;entryPerimeter=0;" parent="1" target="bPT7z6EDC0ymhBereFD1-21" edge="1">
          <mxGeometry width="50" height="50" relative="1" as="geometry">
            <mxPoint x="873" y="469" as="sourcePoint" />
            <mxPoint x="940" y="469" as="targetPoint" />
          </mxGeometry>
        </mxCell>
        <mxCell id="bPT7z6EDC0ymhBereFD1-26" value="" style="endArrow=classic;html=1;rounded=0;entryX=0.098;entryY=0.56;entryDx=0;entryDy=0;entryPerimeter=0;exitX=0.997;exitY=0.659;exitDx=0;exitDy=0;exitPerimeter=0;" parent="1" target="bPT7z6EDC0ymhBereFD1-22" edge="1">
          <mxGeometry width="50" height="50" relative="1" as="geometry">
            <mxPoint x="1055.96" y="468" as="sourcePoint" />
            <mxPoint x="1105.96" y="469" as="targetPoint" />
          </mxGeometry>
        </mxCell>
        <UserObject label="http://proxy.lbs.alcatel-lucent.com:8000/" link="http://proxy.lbs.alcatel-lucent.com:8000/" id="bPT7z6EDC0ymhBereFD1-27">
          <mxCell style="text;whiteSpace=wrap;" parent="1" vertex="1">
            <mxGeometry x="917.96" y="506" width="240" height="40" as="geometry" />
          </mxCell>
        </UserObject>
        <UserObject label="oauth2.googleapis.com:443" link="oauth2.googleapis.com:443" id="bPT7z6EDC0ymhBereFD1-28">
          <mxCell style="text;whiteSpace=wrap;" parent="1" vertex="1">
            <mxGeometry x="1095" y="400" width="180" height="40" as="geometry" />
          </mxCell>
        </UserObject>
        <mxCell id="bPT7z6EDC0ymhBereFD1-33" value="HTTP :8000" style="text;html=1;align=center;verticalAlign=middle;whiteSpace=wrap;rounded=0;fontColor=#999999;" parent="1" vertex="1">
          <mxGeometry x="860" y="445" width="105" height="30" as="geometry" />
        </mxCell>
        <mxCell id="bPT7z6EDC0ymhBereFD1-34" value="HTTPS :443" style="text;html=1;align=center;verticalAlign=middle;whiteSpace=wrap;rounded=0;fontColor=#999999;" parent="1" vertex="1">
          <mxGeometry x="1040" y="440" width="105" height="30" as="geometry" />
        </mxCell>
        <mxCell id="tIuJpQ3HoIQ7xwwXYQ-k-1" value="&lt;div&gt;7T&lt;/div&gt;Volume" style="shape=cylinder3;whiteSpace=wrap;html=1;boundedLbl=1;backgroundOutline=1;size=15;" vertex="1" parent="1">
          <mxGeometry x="750" y="816" width="50" height="70" as="geometry" />
        </mxCell>
        <mxCell id="tIuJpQ3HoIQ7xwwXYQ-k-2" value="" style="rounded=0;whiteSpace=wrap;html=1;fillColor=#f8cecc;strokeColor=#b85450;" vertex="1" parent="1">
          <mxGeometry x="525" y="910" width="365" height="290" as="geometry" />
        </mxCell>
        <mxCell id="tIuJpQ3HoIQ7xwwXYQ-k-3" value="sbcdocker1" style="text;html=1;align=center;verticalAlign=middle;whiteSpace=wrap;rounded=0;" vertex="1" parent="1">
          <mxGeometry x="666.5" y="913" width="60" height="30" as="geometry" />
        </mxCell>
        <mxCell id="tIuJpQ3HoIQ7xwwXYQ-k-4" value="" style="group" vertex="1" connectable="0" parent="1">
          <mxGeometry x="547" y="950" width="320" height="230" as="geometry" />
        </mxCell>
        <mxCell id="tIuJpQ3HoIQ7xwwXYQ-k-5" value="" style="rounded=1;whiteSpace=wrap;html=1;" vertex="1" parent="tIuJpQ3HoIQ7xwwXYQ-k-4">
          <mxGeometry width="320" height="230" as="geometry" />
        </mxCell>
        <mxCell id="tIuJpQ3HoIQ7xwwXYQ-k-6" value="&lt;div&gt;NFS client&amp;nbsp;&lt;span style=&quot;background-color: initial;&quot;&gt;/home&lt;/span&gt;&lt;/div&gt;" style="text;html=1;align=center;verticalAlign=middle;whiteSpace=wrap;rounded=0;" vertex="1" parent="tIuJpQ3HoIQ7xwwXYQ-k-4">
          <mxGeometry x="-43" y="-0.0033333333333338544" width="240" height="40.33333333333333" as="geometry" />
        </mxCell>
        <mxCell id="tIuJpQ3HoIQ7xwwXYQ-k-11" value="" style="rounded=1;whiteSpace=wrap;html=1;fillColor=#d5e8d4;strokeColor=#82b366;" vertex="1" parent="tIuJpQ3HoIQ7xwwXYQ-k-4">
          <mxGeometry x="30" y="39" width="250" height="175" as="geometry" />
        </mxCell>
        <mxCell id="tIuJpQ3HoIQ7xwwXYQ-k-12" value="&lt;div&gt;/home/$USER&lt;/div&gt;" style="text;html=1;align=center;verticalAlign=middle;whiteSpace=wrap;rounded=0;" vertex="1" parent="tIuJpQ3HoIQ7xwwXYQ-k-4">
          <mxGeometry x="30" y="33.99999999999999" width="240" height="40.33333333333333" as="geometry" />
        </mxCell>
        <mxCell id="tIuJpQ3HoIQ7xwwXYQ-k-17" value="" style="shape=cube;whiteSpace=wrap;html=1;boundedLbl=1;backgroundOutline=1;darkOpacity=0.05;darkOpacity2=0.1;" vertex="1" parent="tIuJpQ3HoIQ7xwwXYQ-k-4">
          <mxGeometry x="63" y="69" width="187" height="131" as="geometry" />
        </mxCell>
        <mxCell id="tIuJpQ3HoIQ7xwwXYQ-k-18" value="&lt;div&gt;/home/$USER/.local&lt;/div&gt;" style="text;html=1;align=center;verticalAlign=middle;whiteSpace=wrap;rounded=0;" vertex="1" parent="tIuJpQ3HoIQ7xwwXYQ-k-4">
          <mxGeometry x="40" y="90" width="240" height="40.33333333333333" as="geometry" />
        </mxCell>
        <mxCell id="tIuJpQ3HoIQ7xwwXYQ-k-8" value="" style="endArrow=classic;html=1;rounded=0;entryX=1.036;entryY=0.555;entryDx=0;entryDy=0;entryPerimeter=0;exitX=0;exitY=0.5;exitDx=0;exitDy=0;exitPerimeter=0;" edge="1" parent="1" source="tIuJpQ3HoIQ7xwwXYQ-k-1" target="bPT7z6EDC0ymhBereFD1-17">
          <mxGeometry width="50" height="50" relative="1" as="geometry">
            <mxPoint x="820" y="780" as="sourcePoint" />
            <mxPoint x="870" y="730" as="targetPoint" />
          </mxGeometry>
        </mxCell>
        <mxCell id="tIuJpQ3HoIQ7xwwXYQ-k-9" value="Mount" style="text;html=1;align=center;verticalAlign=middle;whiteSpace=wrap;rounded=0;fontColor=#999999;" vertex="1" parent="1">
          <mxGeometry x="660" y="820" width="105" height="30" as="geometry" />
        </mxCell>
        <mxCell id="tIuJpQ3HoIQ7xwwXYQ-k-19" value="" style="endArrow=classic;html=1;rounded=0;entryX=0.357;entryY=-0.032;entryDx=0;entryDy=0;entryPerimeter=0;" edge="1" parent="1" target="tIuJpQ3HoIQ7xwwXYQ-k-6">
          <mxGeometry width="50" height="50" relative="1" as="geometry">
            <mxPoint x="590" y="870" as="sourcePoint" />
            <mxPoint x="800" y="950" as="targetPoint" />
          </mxGeometry>
        </mxCell>
        <mxCell id="tIuJpQ3HoIQ7xwwXYQ-k-20" value="NFS" style="text;html=1;align=center;verticalAlign=middle;whiteSpace=wrap;rounded=0;fontColor=#999999;" vertex="1" parent="1">
          <mxGeometry x="561.5" y="886" width="105" height="30" as="geometry" />
        </mxCell>
      </root>
    </mxGraphModel>
  </diagram>
</mxfile>
